<svg width="15" height="10" viewBox="0 0 15 10" fill="none" xmlns="http://www.w3.org/2000/svg">
<path d="M6.88244 9.712C6.95125 9.80082 7.04332 9.87344 7.15072 9.92362C7.25813 9.97379 7.37765 10 7.49898 10C7.62032 10 7.73984 9.97379 7.84724 9.92362C7.95465 9.87344 8.04672 9.80082 8.11553 9.712L14.8661 1.04593C14.9442 0.945973 14.99 0.828898 14.9985 0.707422C15.0071 0.585946 14.978 0.464717 14.9144 0.356905C14.8509 0.249093 14.7553 0.158821 14.6381 0.0958989C14.5208 0.0329764 14.3865 -0.000190883 14.2495 8.26379e-07H0.748455C0.611827 0.000502398 0.477937 0.0340962 0.361185 0.0971694C0.244433 0.160243 0.149235 0.250409 0.0858294 0.357972C0.0224239 0.465534 -0.0067904 0.586424 0.0013282 0.707639C0.00944681 0.828855 0.0545911 0.945811 0.131906 1.04593L6.88244 9.712Z" fill="#8F8B8B"/>
</svg>
